<svg width="61" height="61" viewBox="0 0 61 61" fill="none" xmlns="http://www.w3.org/2000/svg">
<path d="M34.4082 0.800063C35.3544 0.0660391 36.7292 0.322397 37.3472 1.3481L41.3978 8.07068C41.7713 8.69053 42.4505 9.06027 43.1738 9.0375L51.0186 8.79046C52.2155 8.75277 53.177 9.76824 53.0741 10.9613L52.3997 18.7809C52.3375 19.5019 52.6697 20.2003 53.2682 20.607L59.7599 25.0181C60.7504 25.6912 60.9314 27.0779 60.1469 27.9826L55.0051 33.9124C54.531 34.4591 54.3892 35.2193 54.6344 35.9002L57.2935 43.2847C57.6992 44.4113 57.0306 45.6396 55.8641 45.9104L48.2188 47.6854C47.5139 47.8491 46.9524 48.3808 46.7505 49.0757L44.5613 56.6128C44.2273 57.7628 42.9644 58.3635 41.8615 57.897L34.633 54.8392C33.9665 54.5572 33.1997 54.6573 32.6279 55.1009L26.4266 59.9118C25.4805 60.6458 24.1057 60.3894 23.4877 59.3637L19.437 52.6412C19.0636 52.0213 18.3843 51.6516 17.661 51.6743L9.81632 51.9214C8.6194 51.9591 7.65786 50.9436 7.76076 49.7505L8.43517 41.9309C8.49735 41.2099 8.16519 40.5116 7.56663 40.1049L1.07492 35.6937C0.0844387 35.0207 -0.0965806 33.634 0.687943 32.7292L5.82978 26.7995C6.30388 26.2527 6.44564 25.4925 6.20046 24.8116L3.54137 17.4272C3.13565 16.3005 3.80429 15.0722 4.97078 14.8014L12.616 13.0264C13.321 12.8628 13.8825 12.3311 14.0844 11.6361L16.2736 4.099C16.6076 2.94902 17.8705 2.34834 18.9734 2.81488L26.2018 5.87266C26.8683 6.15461 27.6351 6.05451 28.2069 5.61092L34.4082 0.800063Z" fill="#ECEAEA"/>
</svg>
