<svg width="16" height="18" viewBox="0 0 16 18" fill="none" xmlns="http://www.w3.org/2000/svg">
<path fill-rule="evenodd" clip-rule="evenodd" d="M9.22152 11.4218C9.53428 11.2175 9.94918 11.2728 10.198 11.552L13.3421 15.0794C13.6203 15.3915 13.5935 15.8703 13.2822 16.149C12.971 16.4276 12.4932 16.4004 12.215 16.0883L9.97787 13.5785L10.3452 16.4089C10.399 16.8238 10.1071 17.2037 9.69312 17.2574C9.27918 17.3111 8.89997 17.0183 8.84613 16.6034L8.47884 13.773L6.95638 16.7707C6.76707 17.1435 6.31201 17.2917 5.93997 17.1017C5.56794 16.9117 5.41982 16.4556 5.60913 16.0828L7.26644 12.8195C7.32642 12.7014 7.41629 12.6012 7.52707 12.5288L9.22152 11.4218Z" fill="#24292F"/>
<path fill-rule="evenodd" clip-rule="evenodd" d="M11.3205 1.17787C11.9771 0.59194 12.9926 0.689554 13.5268 1.38997L15.5982 4.10555C16.1325 4.80596 15.96 5.81349 15.2235 6.29465L3.79722 13.7595C3.13474 14.1923 2.25107 14.0398 1.77052 13.4098L0.938919 12.3196C0.458366 11.6896 0.543441 10.7951 1.13404 10.268L11.3205 1.17787ZM3.7011 10.0064L4.72275 11.3458L5.99234 10.5164L4.83294 8.99641L3.7011 10.0064ZM11.18 7.12727L9.45773 4.86937L10.5896 3.85935L12.4496 6.29785L11.18 7.12727Z" fill="#24292F"/>
</svg>
