<svg width="30" height="30" viewBox="0 0 30 30" fill="none" xmlns="http://www.w3.org/2000/svg">
<g filter="url(#filter0_d_1_192)">
<path fill-rule="evenodd" clip-rule="evenodd" d="M15.3851 9.49377C15.2852 9.48254 15.1841 9.4995 15.0933 9.54273C15.0025 9.58596 14.9257 9.65374 14.8714 9.73839L13.2239 12.3109L10.1704 12.4118C10.07 12.4151 9.97252 12.4464 9.88896 12.5022C9.8054 12.558 9.73915 12.6361 9.69763 12.7276C9.65611 12.8191 9.64103 12.9204 9.6541 13.0201C9.66717 13.1197 9.70782 13.2137 9.77146 13.2914L11.7084 15.6541L10.8607 18.5885C10.8328 18.685 10.8324 18.7874 10.8597 18.8842C10.8869 18.981 10.9407 19.0681 11.0149 19.1359C11.0892 19.2037 11.1809 19.2493 11.2797 19.2677C11.3785 19.286 11.4805 19.2764 11.5741 19.2398L14.4198 18.1272L16.9496 19.8408C17.0328 19.8971 17.13 19.929 17.2304 19.9329C17.3307 19.9368 17.4302 19.9126 17.5175 19.8631C17.6048 19.8134 17.6765 19.7404 17.7245 19.6521C17.7725 19.5639 17.7949 19.4641 17.7891 19.3638L17.6099 16.3132L20.0221 14.4375C20.1016 14.3758 20.1622 14.293 20.1971 14.1987C20.2319 14.1043 20.2397 14.002 20.2194 13.9035C20.1991 13.8049 20.1517 13.714 20.0824 13.6411C20.0131 13.5681 19.9247 13.5161 19.8274 13.4907L16.8715 12.7188L15.832 9.84579C15.7978 9.75125 15.7378 9.66817 15.6588 9.60595C15.5798 9.54374 15.485 9.50488 15.3851 9.49377Z" fill="#F6F6F6"/>
</g>
<defs>
<filter id="filter0_d_1_192" x="0.549742" y="0.390806" width="28.7804" height="28.6422" filterUnits="userSpaceOnUse" color-interpolation-filters="sRGB">
<feFlood flood-opacity="0" result="BackgroundImageFix"/>
<feColorMatrix in="SourceAlpha" type="matrix" values="0 0 0 0 0 0 0 0 0 0 0 0 0 0 0 0 0 0 127 0" result="hardAlpha"/>
<feOffset/>
<feGaussianBlur stdDeviation="4.54984"/>
<feComposite in2="hardAlpha" operator="out"/>
<feColorMatrix type="matrix" values="0 0 0 0 0.964706 0 0 0 0 0.964706 0 0 0 0 0.964706 0 0 0 0.49 0"/>
<feBlend mode="normal" in2="BackgroundImageFix" result="effect1_dropShadow_1_192"/>
<feBlend mode="normal" in="SourceGraphic" in2="effect1_dropShadow_1_192" result="shape"/>
</filter>
</defs>
</svg>
